<svg width="801" height="1055" viewBox="0 0 801 1055" fill="none" xmlns="http://www.w3.org/2000/svg">
<g filter="url(#filter0_d_51_305)">
<path d="M108.34 542.637C27.4591 437.097 44.8332 247.964 108.34 153.101C91.2178 144.575 341.642 -103.589 441.631 50.0981C593.999 28.8555 866.246 133.685 998.685 224.991C1173.13 345.254 1210.9 699.847 1024.79 861.007C991.873 889.515 1031.82 1022.69 707.967 984.01C647.714 926.509 549.777 959.51 515.936 902.023C481.272 843.137 484.773 723.107 419.084 706.753C383.116 697.798 346.588 687.273 311.666 675.235C216.594 642.462 175.219 629.906 108.34 542.637Z" fill="url(#paint0_linear_51_305)" shape-rendering="crispEdges"/>
<path d="M82.9755 146.312C50.7527 198.187 31.3807 270.679 29.2059 343.115C26.9309 418.887 43.3673 498.955 88.4967 557.844C123.181 603.103 152.51 630.607 186.676 650.874C217.978 669.442 252.516 681.323 295.308 696.044C298.012 696.974 300.748 697.915 303.519 698.87C339.248 711.186 376.494 721.913 413.044 731.012C421.651 733.155 429.032 738.692 436.123 749.551C443.529 760.892 449.514 776.422 455.173 795.535C458.504 806.785 461.147 817.053 463.893 827.719C466.161 836.53 468.499 845.613 471.353 855.746C477.026 875.891 484.001 897.053 494.392 914.705C506.425 935.147 524.052 946.928 542.546 954.246C560.282 961.264 580.214 964.677 597.883 967.662C635.675 974.047 667.055 979.524 690.707 1002.1C694.618 1005.83 699.634 1008.19 705.002 1008.83C868.41 1028.35 949.307 1005.98 992.459 966.055C1014.02 946.111 1023.91 923.681 1030.36 906.453C1031.75 902.74 1032.85 899.654 1033.82 896.93C1035.33 892.699 1036.52 889.347 1038 885.891C1040.04 881.129 1041.18 879.906 1041.2 879.877C1041.2 879.876 1041.19 879.877 1041.19 879.879C1141.83 792.709 1180.22 655.114 1171.89 526.054C1163.59 397.367 1108.38 270.251 1012.88 204.409C944.304 157.134 840.914 107.165 735.622 71.65C637.342 38.5005 533.635 16.6424 453.328 23.6329C423.78 -13.2562 384.569 -26.7704 343.767 -24.8148C300.487 -22.7404 256.139 -3.48856 218.181 19.3475C179.8 42.4378 145.47 70.7052 121.681 93.8964C109.856 105.425 100.055 116.26 93.5493 125.051C90.4924 129.181 87.1353 134.214 85.0177 139.4C84.4234 140.856 83.5219 143.267 82.9755 146.312ZM120.593 131.31C120.593 131.309 120.593 131.309 120.594 131.309C120.417 131.21 120.239 131.113 120.058 131.017C120.238 131.112 120.416 131.21 120.593 131.31Z" stroke="url(#paint1_linear_51_305)" stroke-opacity="0.25" stroke-width="50" stroke-linecap="round" stroke-linejoin="round" shape-rendering="crispEdges"/>
</g>
<defs>
<filter id="filter0_d_51_305" x="0.0012207" y="-49.9971" width="1201.99" height="1104.99" filterUnits="userSpaceOnUse" color-interpolation-filters="sRGB">
<feFlood flood-opacity="0" result="BackgroundImageFix"/>
<feColorMatrix in="SourceAlpha" type="matrix" values="0 0 0 0 0 0 0 0 0 0 0 0 0 0 0 0 0 0 127 0" result="hardAlpha"/>
<feOffset dy="10"/>
<feGaussianBlur stdDeviation="2"/>
<feComposite in2="hardAlpha" operator="out"/>
<feColorMatrix type="matrix" values="0 0 0 0 0.293271 0 0 0 0 0.87079 0 0 0 0 0.997563 0 0 0 1 0"/>
<feBlend mode="normal" in2="BackgroundImageFix" result="effect1_dropShadow_51_305"/>
<feBlend mode="normal" in="SourceGraphic" in2="effect1_dropShadow_51_305" result="shape"/>
</filter>
<linearGradient id="paint0_linear_51_305" x1="539.535" y1="672.017" x2="742.354" y2="47.0023" gradientUnits="userSpaceOnUse">
<stop stop-color="#F1FDFE"/>
<stop offset="1" stop-color="#E9FDFE" stop-opacity="0"/>
</linearGradient>
<linearGradient id="paint1_linear_51_305" x1="54" y1="248.006" x2="760.95" y2="972.975" gradientUnits="userSpaceOnUse">
<stop stop-color="#2D67FD"/>
<stop offset="0.121" stop-color="#3E78EC"/>
<stop offset="0.41" stop-color="#66A2C3"/>
<stop offset="0.675" stop-color="#4BDEFE"/>
<stop offset="1" stop-color="#59B9FF"/>
</linearGradient>
</defs>
</svg>
