<svg width="68" height="92" viewBox="0 0 68 92" fill="none" xmlns="http://www.w3.org/2000/svg">
<rect y="18" width="62" height="62" rx="31" fill="#D9D9D9"/>
<path d="M27.8477 26.3789C25.9336 26.4701 24.2702 26.584 22.8574 26.7207L22.1055 69.5137H26.6514L27.8477 26.3789ZM30.6504 55.2266C32.0632 55.5911 33.8291 55.7734 35.9482 55.7734C38.0674 55.7734 40.2093 55.4658 42.374 54.8506C44.5615 54.2126 46.4756 53.2783 48.1162 52.0478C51.7165 49.3818 53.5166 45.7018 53.5166 41.0078C53.5166 34.4909 49.9961 30.1159 42.9551 27.8828C40.3574 27.0397 37.304 26.5384 33.7949 26.3789H31.4023L30.6504 55.2266ZM35.333 73.6152C28.0641 72.8861 20.875 72.8861 13.7656 73.6152H13.6289C13.1276 73.6152 12.6947 73.4329 12.3301 73.0684C11.9883 72.7266 11.8174 72.3278 11.8174 71.8721C11.8174 71.4163 11.9655 71.0176 12.2617 70.6758C12.5807 70.334 13.0592 70.1289 13.6973 70.0605C14.3581 69.9922 15.11 69.9238 15.9531 69.8555C16.819 69.7871 17.6735 69.7187 18.5166 69.6504L19.3027 27.2334C17.6165 27.5068 16.3633 27.7803 15.543 28.0537C14.7454 28.3271 14.2669 28.498 14.1074 28.5664C13.9479 28.612 13.6973 28.6348 13.3555 28.6348C13.0365 28.6348 12.6947 28.4411 12.3301 28.0537C11.9883 27.6663 11.8174 27.2676 11.8174 26.8574C11.8174 25.9687 12.1934 25.3877 12.9453 25.1143C17.6621 23.542 23.5866 22.7559 30.7188 22.7559H32.2568C32.8037 22.7559 33.7038 22.79 34.957 22.8584C36.2103 22.904 37.7939 23.0863 39.708 23.4053C41.6221 23.7243 43.445 24.2142 45.1768 24.875C46.9085 25.513 48.4922 26.3105 49.9277 27.2676C51.3861 28.2246 52.6507 29.3639 53.7217 30.6855C55.9775 33.5111 57.1055 36.9518 57.1055 41.0078C57.1055 46.6361 54.7813 51.1934 50.1328 54.6797C45.9401 57.8014 41.0752 59.3623 35.5381 59.3623C33.6012 59.3623 31.9492 59.1914 30.582 58.8496L30.3086 69.6504C31.6074 69.7415 33.3962 69.8783 35.6748 70.0605C36.1305 70.1289 36.5065 70.334 36.8027 70.6758C37.1217 71.0176 37.2813 71.4391 37.2813 71.9404C37.2813 72.4189 37.0876 72.8177 36.7002 73.1367C36.3128 73.4557 35.9027 73.6152 35.4697 73.6152H35.333Z" fill="url(#paint0_linear_427_142)"/>
<defs>
<linearGradient id="paint0_linear_427_142" x1="-12.2052" y1="45.5619" x2="122.052" y2="-27.5474" gradientUnits="userSpaceOnUse">
<stop stop-color="#E128AD"/>
<stop offset="0.581" stop-color="#2BA2D5"/>
<stop offset="0.836" stop-color="#4EB4DF"/>
<stop offset="1" stop-color="#59C6DE"/>
</linearGradient>
</defs>
</svg>
